<mxfile host="app.diagrams.net" modified="2023-11-02T12:56:50.473Z" agent="Mozilla/5.0 (Windows NT 10.0; Win64; x64) AppleWebKit/537.36 (KHTML, like Gecko) Chrome/118.0.0.0 Safari/537.36" etag="5jC-s5EMbPhfXuEnzCJ9" version="22.0.8" type="device">
  <diagram name="第 1 页" id="PPhdmSXQ1CoikLgfEZwS">
    <mxGraphModel dx="420" dy="666" grid="0" gridSize="10" guides="1" tooltips="1" connect="1" arrows="1" fold="1" page="1" pageScale="1" pageWidth="827" pageHeight="1169" math="0" shadow="0">
      <root>
        <mxCell id="0" />
        <mxCell id="1" parent="0" />
        <mxCell id="ZgxIz4QGeBM-uwyUWMxA-42" value="&amp;lt;&amp;lt;interface&amp;gt;&amp;gt;&lt;br&gt;飛翔" style="swimlane;fontStyle=1;align=center;verticalAlign=top;childLayout=stackLayout;horizontal=1;startSize=37;horizontalStack=0;resizeParent=1;resizeParentMax=0;resizeLast=0;collapsible=1;marginBottom=0;whiteSpace=wrap;html=1;" vertex="1" parent="1">
          <mxGeometry x="166" y="408" width="168" height="63" as="geometry" />
        </mxCell>
        <mxCell id="ZgxIz4QGeBM-uwyUWMxA-43" value="+飛()" style="text;strokeColor=none;fillColor=none;align=left;verticalAlign=top;spacingLeft=4;spacingRight=4;overflow=hidden;rotatable=0;points=[[0,0.5],[1,0.5]];portConstraint=eastwest;whiteSpace=wrap;html=1;" vertex="1" parent="ZgxIz4QGeBM-uwyUWMxA-42">
          <mxGeometry y="37" width="168" height="26" as="geometry" />
        </mxCell>
        <mxCell id="ZgxIz4QGeBM-uwyUWMxA-48" value="接口&lt;br&gt;矩形表示頂端有&amp;lt;&amp;lt;interface&amp;gt;&amp;gt;&amp;gt;&amp;gt;&lt;br&gt;第一行 : 接口名稱&lt;br&gt;第二行 : 接口方法" style="shape=note;size=20;whiteSpace=wrap;html=1;align=left;" vertex="1" parent="1">
          <mxGeometry x="166" y="522" width="201" height="63" as="geometry" />
        </mxCell>
        <mxCell id="ZgxIz4QGeBM-uwyUWMxA-49" value="" style="endArrow=none;dashed=1;html=1;dashPattern=1 3;strokeWidth=2;rounded=0;entryX=0.508;entryY=1.212;entryDx=0;entryDy=0;entryPerimeter=0;exitX=0.57;exitY=-0.05;exitDx=0;exitDy=0;exitPerimeter=0;" edge="1" parent="1" source="ZgxIz4QGeBM-uwyUWMxA-48" target="ZgxIz4QGeBM-uwyUWMxA-43">
          <mxGeometry width="50" height="50" relative="1" as="geometry">
            <mxPoint x="266" y="558" as="sourcePoint" />
            <mxPoint x="316" y="508" as="targetPoint" />
          </mxGeometry>
        </mxCell>
        <mxCell id="ZgxIz4QGeBM-uwyUWMxA-50" value="&amp;lt;&amp;lt;interface&amp;gt;&amp;gt;&lt;br&gt;講人話" style="swimlane;fontStyle=1;align=center;verticalAlign=top;childLayout=stackLayout;horizontal=1;startSize=37;horizontalStack=0;resizeParent=1;resizeParentMax=0;resizeLast=0;collapsible=1;marginBottom=0;whiteSpace=wrap;html=1;" vertex="1" parent="1">
          <mxGeometry x="386" y="408" width="168" height="63" as="geometry" />
        </mxCell>
        <mxCell id="ZgxIz4QGeBM-uwyUWMxA-51" value="+講話()" style="text;strokeColor=none;fillColor=none;align=left;verticalAlign=top;spacingLeft=4;spacingRight=4;overflow=hidden;rotatable=0;points=[[0,0.5],[1,0.5]];portConstraint=eastwest;whiteSpace=wrap;html=1;" vertex="1" parent="ZgxIz4QGeBM-uwyUWMxA-50">
          <mxGeometry y="37" width="168" height="26" as="geometry" />
        </mxCell>
        <mxCell id="ZgxIz4QGeBM-uwyUWMxA-52" value="唐老鴨" style="swimlane;fontStyle=1;align=center;verticalAlign=top;childLayout=stackLayout;horizontal=1;startSize=27;horizontalStack=0;resizeParent=1;resizeParentMax=0;resizeLast=0;collapsible=1;marginBottom=0;whiteSpace=wrap;html=1;" vertex="1" parent="1">
          <mxGeometry x="386" y="522" width="168" height="53" as="geometry" />
        </mxCell>
        <mxCell id="ZgxIz4QGeBM-uwyUWMxA-53" value="+講話()" style="text;strokeColor=none;fillColor=none;align=left;verticalAlign=top;spacingLeft=4;spacingRight=4;overflow=hidden;rotatable=0;points=[[0,0.5],[1,0.5]];portConstraint=eastwest;whiteSpace=wrap;html=1;" vertex="1" parent="ZgxIz4QGeBM-uwyUWMxA-52">
          <mxGeometry y="27" width="168" height="26" as="geometry" />
        </mxCell>
        <mxCell id="ZgxIz4QGeBM-uwyUWMxA-54" value="接口&lt;br&gt;棒棒糖表示法&lt;br&gt;圓圈旁為接口名稱&lt;br&gt;接口方法在實現類中出現" style="shape=note;size=20;whiteSpace=wrap;html=1;align=left;" vertex="1" parent="1">
          <mxGeometry x="600" y="512" width="201" height="63" as="geometry" />
        </mxCell>
        <mxCell id="ZgxIz4QGeBM-uwyUWMxA-55" value="" style="endArrow=block;dashed=1;endFill=0;endSize=12;html=1;rounded=0;exitX=0.5;exitY=0;exitDx=0;exitDy=0;" edge="1" parent="1" source="ZgxIz4QGeBM-uwyUWMxA-52">
          <mxGeometry width="160" relative="1" as="geometry">
            <mxPoint x="447" y="448" as="sourcePoint" />
            <mxPoint x="470" y="468" as="targetPoint" />
          </mxGeometry>
        </mxCell>
        <mxCell id="ZgxIz4QGeBM-uwyUWMxA-56" value="" style="endArrow=none;dashed=1;html=1;dashPattern=1 3;strokeWidth=2;rounded=0;entryX=0;entryY=0;entryDx=0;entryDy=0;entryPerimeter=0;" edge="1" parent="1" target="ZgxIz4QGeBM-uwyUWMxA-54">
          <mxGeometry width="50" height="50" relative="1" as="geometry">
            <mxPoint x="472" y="502" as="sourcePoint" />
            <mxPoint x="552" y="423" as="targetPoint" />
          </mxGeometry>
        </mxCell>
      </root>
    </mxGraphModel>
  </diagram>
</mxfile>
